{
	"asset":{
		"generator":"Khronos glTF Blender I/O v4.2.60",
		"version":"2.0"
	},
	"scene":0,
	"scenes":[
		{
			"name":"Scene",
			"nodes":[
				2,
				8,
				14,
				22
			]
		}
	],
	"nodes":[
		{
			"mesh":0,
			"name":"Object_2"
		},
		{
			"children":[
				0
			],
			"name":"phone.obj.cleaner.materialmerger.gle"
		},
		{
			"children":[
				1
			],
			"name":"phone",
			"rotation":[
				-0.70710688829422,
				0,
				0,
				0.7071066498756409
			]
		},
		{
			"mesh":1,
			"name":"button",
			"translation":[
				-7.517309859395027e-05,
				0,
				0
			]
		},
		{
			"mesh":2,
			"name":"logo"
		},
		{
			"children":[
				3,
				4
			],
			"name":"Curve.012_0",
			"rotation":[
				0.70710688829422,
				0,
				0,
				0.7071066498756409
			],
			"scale":[
				11.164396286010742,
				11.164395332336426,
				11.164395332336426
			],
			"translation":[
				-0.03155115246772766,
				2.8381216526031494,
				4.189584255218506
			]
		},
		{
			"children":[
				5
			],
			"name":"GLTF_SceneRootNode",
			"rotation":[
				0.70710688829422,
				0,
				0,
				0.7071066498756409
			],
			"scale":[
				0.1551550030708313,
				0.15515507757663727,
				0.15515507757663727
			]
		},
		{
			"children":[
				6
			],
			"name":"root"
		},
		{
			"children":[
				7
			],
			"name":"github",
			"rotation":[
				-0.70710688829422,
				0,
				0,
				0.7071066498756409
			],
			"translation":[
				0,
				-0.9232236742973328,
				0
			]
		},
		{
			"mesh":3,
			"name":"button.003"
		},
		{
			"mesh":4,
			"name":"logo.001"
		},
		{
			"children":[
				9,
				10
			],
			"name":"Cylinder.007_0",
			"rotation":[
				0.7071069478988647,
				0,
				0,
				0.7071066498756409
			],
			"scale":[
				0.45027339458465576,
				0.45027339458465576,
				0.4502732455730438
			],
			"translation":[
				0.2002195119857788,
				3.9622015953063965,
				5.533317565917969
			]
		},
		{
			"children":[
				11
			],
			"name":"GLTF_SceneRootNode.001",
			"rotation":[
				0.70710688829422,
				0,
				0,
				0.7071066498756409
			],
			"scale":[
				0.1162375956773758,
				0.11623761057853699,
				0.11623761057853699
			],
			"translation":[
				-0.23609735071659088,
				0.01138964295387268,
				2.500718116760254
			]
		},
		{
			"children":[
				12
			],
			"name":"root.001"
		},
		{
			"children":[
				13
			],
			"name":"linkedin",
			"rotation":[
				-0.70710688829422,
				0,
				0,
				0.7071066498756409
			],
			"translation":[
				0,
				-3.4417531490325928,
				0
			]
		},
		{
			"mesh":5,
			"name":"button.001",
			"translation":[
				0.1266419142484665,
				0,
				0
			]
		},
		{
			"children":[
				15
			],
			"name":"Curve.012_0.001",
			"rotation":[
				0.70710688829422,
				0,
				0,
				0.7071066498756409
			],
			"scale":[
				11.164396286010742,
				11.164395332336426,
				11.164395332336426
			],
			"translation":[
				-0.03155115246772766,
				2.8381216526031494,
				4.189584255218506
			]
		},
		{
			"children":[
				16
			],
			"name":"GLTF_SceneRootNode.002",
			"rotation":[
				0.70710688829422,
				0,
				0,
				0.7071066498756409
			],
			"scale":[
				0.1551550030708313,
				0.15515507757663727,
				0.15515507757663727
			]
		},
		{
			"children":[
				17
			],
			"name":"root.002"
		},
		{
			"children":[
				18
			],
			"name":"logo.002",
			"translation":[
				0,
				0,
				-0.9232235550880432
			]
		},
		{
			"mesh":6,
			"name":"button.002",
			"scale":[
				0.026200763881206512,
				0.02620076760649681,
				0.02620076760649681
			],
			"translation":[
				0.21641801297664642,
				-0.6431162357330322,
				-0.4796529710292816
			]
		},
		{
			"children":[
				20
			],
			"name":"mail icon.obj.cleaner.materialmerger.gles"
		},
		{
			"children":[
				19,
				21
			],
			"name":"mail",
			"rotation":[
				-0.70710688829422,
				0,
				0,
				0.7071066498756409
			]
		}
	],
	"materials":[
		{
			"doubleSided":true,
			"name":"telephoynNone.001",
			"normalTexture":{
				"index":0
			},
			"occlusionTexture":{
				"index":1
			},
			"pbrMetallicRoughness":{
				"baseColorTexture":{
					"index":2
				},
				"metallicRoughnessTexture":{
					"index":1
				}
			}
		},
		{
			"doubleSided":true,
			"name":"github",
			"pbrMetallicRoughness":{
				"baseColorFactor":[
					0.009721157141029835,
					0.008568133227527142,
					0.008568129502236843,
					1
				],
				"metallicFactor":0,
				"roughnessFactor":0.20000000298023224
			}
		},
		{
			"doubleSided":true,
			"name":"glossy_putih",
			"pbrMetallicRoughness":{
				"baseColorFactor":[
					0.800000011920929,
					0.800000011920929,
					0.800000011920929,
					1
				],
				"metallicFactor":0,
				"roughnessFactor":0.20000000298023224
			}
		},
		{
			"doubleSided":true,
			"name":"glossy_linkedin",
			"pbrMetallicRoughness":{
				"baseColorFactor":[
					0.021219000220298767,
					0.13563300669193268,
					0.44520100951194763,
					1
				],
				"metallicFactor":0,
				"roughnessFactor":0.20000000298023224
			}
		},
		{
			"doubleSided":true,
			"name":"glossy_putih.001",
			"pbrMetallicRoughness":{
				"baseColorFactor":[
					0.800000011920929,
					0.800000011920929,
					0.800000011920929,
					1
				],
				"metallicFactor":0,
				"roughnessFactor":0.20000000298023224
			}
		},
		{
			"doubleSided":true,
			"name":"github.001",
			"pbrMetallicRoughness":{
				"baseColorFactor":[
					0.48514747619628906,
					0.012286444194614887,
					0,
					1
				],
				"metallicFactor":0,
				"roughnessFactor":0.20000000298023224
			}
		},
		{
			"doubleSided":true,
			"name":"Material.002",
			"pbrMetallicRoughness":{
				"baseColorTexture":{
					"index":3
				},
				"metallicFactor":0,
				"roughnessFactor":0.75
			}
		}
	],
	"meshes":[
		{
			"name":"Object_0",
			"primitives":[
				{
					"attributes":{
						"POSITION":0,
						"NORMAL":1,
						"TEXCOORD_0":2
					},
					"indices":3,
					"material":0
				}
			]
		},
		{
			"name":"Object_1",
			"primitives":[
				{
					"attributes":{
						"POSITION":4,
						"NORMAL":5,
						"TEXCOORD_0":6
					},
					"indices":7,
					"material":1
				}
			]
		},
		{
			"name":"Object_0.001",
			"primitives":[
				{
					"attributes":{
						"POSITION":8,
						"NORMAL":9,
						"TEXCOORD_0":10
					},
					"indices":11,
					"material":2
				}
			]
		},
		{
			"name":"Object_0.002",
			"primitives":[
				{
					"attributes":{
						"POSITION":12,
						"NORMAL":13,
						"TEXCOORD_0":14
					},
					"indices":15,
					"material":3
				}
			]
		},
		{
			"name":"Object_1.001",
			"primitives":[
				{
					"attributes":{
						"POSITION":16,
						"NORMAL":17,
						"TEXCOORD_0":18
					},
					"indices":19,
					"material":4
				}
			]
		},
		{
			"name":"Object_1.003",
			"primitives":[
				{
					"attributes":{
						"POSITION":20,
						"NORMAL":21,
						"TEXCOORD_0":22
					},
					"indices":7,
					"material":5
				}
			]
		},
		{
			"name":"Object_1.002",
			"primitives":[
				{
					"attributes":{
						"POSITION":23,
						"NORMAL":24,
						"TEXCOORD_0":25
					},
					"indices":26,
					"material":6
				}
			]
		}
	],
	"textures":[
		{
			"sampler":0,
			"source":0
		},
		{
			"sampler":0,
			"source":1
		},
		{
			"sampler":0,
			"source":2
		},
		{
			"sampler":0,
			"source":3
		}
	],
	"images":[
		{
			"mimeType":"image/png",
			"name":"telephoynNone.001_normal",
			"uri":"telephoynNone_001_normal.png"
		},
		{
			"mimeType":"image/png",
			"name":"telephoynNone.001_metallicRoughness",
			"uri":"telephoynNone_001_metallicRoughness.png"
		},
		{
			"mimeType":"image/png",
			"name":"telephoynNone.001_baseColor",
			"uri":"telephoynNone_001_baseColor.png"
		},
		{
			"mimeType":"image/png",
			"name":"Material.002_baseColor",
			"uri":"Material_002_baseColor.png"
		}
	],
	"accessors":[
		{
			"bufferView":0,
			"componentType":5126,
			"count":2460,
			"max":[
				0.8873350024223328,
				0.1800840049982071,
				1.3779220581054688
			],
			"min":[
				-1.8032259941101074,
				-0.9698699712753296,
				-1.4798500537872314
			],
			"type":"VEC3"
		},
		{
			"bufferView":1,
			"componentType":5126,
			"count":2460,
			"type":"VEC3"
		},
		{
			"bufferView":2,
			"componentType":5126,
			"count":2460,
			"type":"VEC2"
		},
		{
			"bufferView":3,
			"componentType":5123,
			"count":8250,
			"type":"SCALAR"
		},
		{
			"bufferView":4,
			"componentType":5126,
			"count":16981,
			"max":[
				0.03879868984222412,
				-0.001731577329337597,
				0.03491189330816269
			],
			"min":[
				-0.03492391109466553,
				-0.021953433752059937,
				-0.03881068527698517
			],
			"type":"VEC3"
		},
		{
			"bufferView":5,
			"componentType":5126,
			"count":16981,
			"type":"VEC3"
		},
		{
			"bufferView":6,
			"componentType":5126,
			"count":16981,
			"type":"VEC2"
		},
		{
			"bufferView":7,
			"componentType":5123,
			"count":90624,
			"type":"SCALAR"
		},
		{
			"bufferView":8,
			"componentType":5126,
			"count":1378,
			"max":[
				0.018764417618513107,
				0.0020000000949949026,
				0.01380392350256443
			],
			"min":[
				-0.015313257463276386,
				-0.0020000000949949026,
				-0.01943013444542885
			],
			"type":"VEC3"
		},
		{
			"bufferView":9,
			"componentType":5126,
			"count":1378,
			"type":"VEC3"
		},
		{
			"bufferView":10,
			"componentType":5126,
			"count":1378,
			"type":"VEC2"
		},
		{
			"bufferView":11,
			"componentType":5123,
			"count":4020,
			"type":"SCALAR"
		},
		{
			"bufferView":12,
			"componentType":5126,
			"count":16982,
			"max":[
				1.24868905544281,
				0.2712618410587311,
				1.2196584939956665
			],
			"min":[
				-1.2315424680709839,
				-0.4090571403503418,
				-1.2605732679367065
			],
			"type":"VEC3"
		},
		{
			"bufferView":13,
			"componentType":5126,
			"count":16982,
			"type":"VEC3"
		},
		{
			"bufferView":14,
			"componentType":5126,
			"count":16982,
			"type":"VEC2"
		},
		{
			"bufferView":15,
			"componentType":5123,
			"count":90624,
			"type":"SCALAR"
		},
		{
			"bufferView":16,
			"componentType":5126,
			"count":1901,
			"max":[
				0.5011606216430664,
				0.34342020750045776,
				0.4751898944377899
			],
			"min":[
				-0.4755805730819702,
				0.19674529135227203,
				-0.5013481974601746
			],
			"type":"VEC3"
		},
		{
			"bufferView":17,
			"componentType":5126,
			"count":1901,
			"type":"VEC3"
		},
		{
			"bufferView":18,
			"componentType":5126,
			"count":1901,
			"type":"VEC2"
		},
		{
			"bufferView":19,
			"componentType":5123,
			"count":9540,
			"type":"SCALAR"
		},
		{
			"bufferView":20,
			"componentType":5126,
			"count":16981,
			"max":[
				0.03879868984222412,
				-0.001731577329337597,
				0.03491189330816269
			],
			"min":[
				-0.03492391109466553,
				-0.021953433752059937,
				-0.03881068527698517
			],
			"type":"VEC3"
		},
		{
			"bufferView":21,
			"componentType":5126,
			"count":16981,
			"type":"VEC3"
		},
		{
			"bufferView":22,
			"componentType":5126,
			"count":16981,
			"type":"VEC2"
		},
		{
			"bufferView":23,
			"componentType":5126,
			"count":700,
			"max":[
				1.2486989498138428,
				-0.13121500611305237,
				0.7933589816093445
			],
			"min":[
				-1.2486989498138428,
				-0.28134700655937195,
				-0.7933589816093445
			],
			"type":"VEC3"
		},
		{
			"bufferView":24,
			"componentType":5126,
			"count":700,
			"type":"VEC3"
		},
		{
			"bufferView":25,
			"componentType":5126,
			"count":700,
			"type":"VEC2"
		},
		{
			"bufferView":26,
			"componentType":5123,
			"count":2040,
			"type":"SCALAR"
		}
	],
	"bufferViews":[
		{
			"buffer":0,
			"byteLength":29520,
			"byteOffset":0,
			"target":34962
		},
		{
			"buffer":0,
			"byteLength":29520,
			"byteOffset":29520,
			"target":34962
		},
		{
			"buffer":0,
			"byteLength":19680,
			"byteOffset":59040,
			"target":34962
		},
		{
			"buffer":0,
			"byteLength":16500,
			"byteOffset":78720,
			"target":34963
		},
		{
			"buffer":0,
			"byteLength":203772,
			"byteOffset":95220,
			"target":34962
		},
		{
			"buffer":0,
			"byteLength":203772,
			"byteOffset":298992,
			"target":34962
		},
		{
			"buffer":0,
			"byteLength":135848,
			"byteOffset":502764,
			"target":34962
		},
		{
			"buffer":0,
			"byteLength":181248,
			"byteOffset":638612,
			"target":34963
		},
		{
			"buffer":0,
			"byteLength":16536,
			"byteOffset":819860,
			"target":34962
		},
		{
			"buffer":0,
			"byteLength":16536,
			"byteOffset":836396,
			"target":34962
		},
		{
			"buffer":0,
			"byteLength":11024,
			"byteOffset":852932,
			"target":34962
		},
		{
			"buffer":0,
			"byteLength":8040,
			"byteOffset":863956,
			"target":34963
		},
		{
			"buffer":0,
			"byteLength":203784,
			"byteOffset":871996,
			"target":34962
		},
		{
			"buffer":0,
			"byteLength":203784,
			"byteOffset":1075780,
			"target":34962
		},
		{
			"buffer":0,
			"byteLength":135856,
			"byteOffset":1279564,
			"target":34962
		},
		{
			"buffer":0,
			"byteLength":181248,
			"byteOffset":1415420,
			"target":34963
		},
		{
			"buffer":0,
			"byteLength":22812,
			"byteOffset":1596668,
			"target":34962
		},
		{
			"buffer":0,
			"byteLength":22812,
			"byteOffset":1619480,
			"target":34962
		},
		{
			"buffer":0,
			"byteLength":15208,
			"byteOffset":1642292,
			"target":34962
		},
		{
			"buffer":0,
			"byteLength":19080,
			"byteOffset":1657500,
			"target":34963
		},
		{
			"buffer":0,
			"byteLength":203772,
			"byteOffset":1676580,
			"target":34962
		},
		{
			"buffer":0,
			"byteLength":203772,
			"byteOffset":1880352,
			"target":34962
		},
		{
			"buffer":0,
			"byteLength":135848,
			"byteOffset":2084124,
			"target":34962
		},
		{
			"buffer":0,
			"byteLength":8400,
			"byteOffset":2219972,
			"target":34962
		},
		{
			"buffer":0,
			"byteLength":8400,
			"byteOffset":2228372,
			"target":34962
		},
		{
			"buffer":0,
			"byteLength":5600,
			"byteOffset":2236772,
			"target":34962
		},
		{
			"buffer":0,
			"byteLength":4080,
			"byteOffset":2242372,
			"target":34963
		}
	],
	"samplers":[
		{
			"magFilter":9729,
			"minFilter":9987
		}
	],
	"buffers":[
		{
			"byteLength":2246452,
			"uri":"scene.bin"
		}
	]
}
